<svg width="244" height="48" viewBox="0 0 244 48" fill="none" xmlns="http://www.w3.org/2000/svg">
<mask id="path-1-outside-1_43_39" maskUnits="userSpaceOnUse" x="0" y="0" width="244" height="48" fill="black">
<rect fill="white" width="244" height="48"/>
<path d="M243.019 6.76847C207.987 32.9972 165.534 47.2289 121.885 47.3761C78.2364 47.5234 35.6893 33.5785 0.484255 7.58667L4.57588 1.96365C38.5877 27.0745 79.6926 40.5467 121.862 40.4044C164.031 40.2622 205.046 26.5129 238.89 1.17319L243.019 6.76847Z"/>
</mask>
<path d="M243.019 6.76847C207.987 32.9972 165.534 47.2289 121.885 47.3761C78.2364 47.5234 35.6893 33.5785 0.484255 7.58667L4.57588 1.96365C38.5877 27.0745 79.6926 40.5467 121.862 40.4044C164.031 40.2622 205.046 26.5129 238.89 1.17319L243.019 6.76847Z" fill="white"/>
<path d="M243.019 6.76847C207.987 32.9972 165.534 47.2289 121.885 47.3761C78.2364 47.5234 35.6893 33.5785 0.484255 7.58667L4.57588 1.96365C38.5877 27.0745 79.6926 40.5467 121.862 40.4044C164.031 40.2622 205.046 26.5129 238.89 1.17319L243.019 6.76847Z" stroke="white" stroke-width="0.664461" mask="url(#path-1-outside-1_43_39)"/>
</svg>
