<svg width="136" height="113" viewBox="0 0 136 113" fill="none" xmlns="http://www.w3.org/2000/svg">
<mask id="path-1-outside-1_42_27" maskUnits="userSpaceOnUse" x="0" y="0" width="136" height="113" fill="black">
<rect fill="white" width="136" height="113"/>
<path d="M1.23636 109.353C14.3067 82.7875 32.9241 59.3823 55.8128 40.7411C78.7016 22.0998 105.321 8.66322 133.846 1.35197L135.553 8.10836C107.994 15.1718 82.2775 28.153 60.1645 46.1624C38.0515 64.1718 20.0651 86.7837 7.43784 112.449L1.23636 109.353Z"/>
</mask>
<path d="M1.23636 109.353C14.3067 82.7875 32.9241 59.3823 55.8128 40.7411C78.7016 22.0998 105.321 8.66322 133.846 1.35197L135.553 8.10836C107.994 15.1718 82.2775 28.153 60.1645 46.1624C38.0515 64.1718 20.0651 86.7837 7.43784 112.449L1.23636 109.353Z" fill="white"/>
<path d="M1.23636 109.353C14.3067 82.7875 32.9241 59.3823 55.8128 40.7411C78.7016 22.0998 105.321 8.66322 133.846 1.35197L135.553 8.10836C107.994 15.1718 82.2775 28.153 60.1645 46.1624C38.0515 64.1718 20.0651 86.7837 7.43784 112.449L1.23636 109.353Z" stroke="white" stroke-width="0.664461" mask="url(#path-1-outside-1_42_27)"/>
</svg>
