<svg width="142" height="118" viewBox="0 0 142 118" fill="none" xmlns="http://www.w3.org/2000/svg">
<mask id="path-1-outside-1_43_37" maskUnits="userSpaceOnUse" x="0" y="0" width="142" height="118" fill="black">
<rect fill="white" width="142" height="118"/>
<path d="M2.40745 1.33499C32.4558 8.36617 60.5321 22.1635 84.528 41.6909C108.524 61.2184 127.816 85.9683 140.955 114.082L134.693 117.051C121.999 89.8905 103.361 65.9795 80.1785 47.114C56.9959 28.2484 29.8712 14.9187 0.841316 8.12586L2.40745 1.33499Z"/>
</mask>
<path d="M2.40745 1.33499C32.4558 8.36617 60.5321 22.1635 84.528 41.6909C108.524 61.2184 127.816 85.9683 140.955 114.082L134.693 117.051C121.999 89.8905 103.361 65.9795 80.1785 47.114C56.9959 28.2484 29.8712 14.9187 0.841316 8.12586L2.40745 1.33499Z" fill="white"/>
<path d="M2.40745 1.33499C32.4558 8.36617 60.5321 22.1635 84.528 41.6909C108.524 61.2184 127.816 85.9683 140.955 114.082L134.693 117.051C121.999 89.8905 103.361 65.9795 80.1785 47.114C56.9959 28.2484 29.8712 14.9187 0.841316 8.12586L2.40745 1.33499Z" stroke="white" stroke-width="0.664461" mask="url(#path-1-outside-1_43_37)"/>
</svg>
