<svg width="37" height="158" viewBox="0 0 37 158" fill="none" xmlns="http://www.w3.org/2000/svg">
<mask id="path-1-outside-1_43_38" maskUnits="userSpaceOnUse" x="0" y="0" width="37" height="158" fill="black">
<rect fill="white" width="37" height="158"/>
<path d="M30.6674 1.28324C43.4125 54.3031 34.7258 110.251 6.51828 156.82L0.609902 153.189C27.8613 108.199 36.2536 54.1467 23.9405 2.92391L30.6674 1.28324Z"/>
</mask>
<path d="M30.6674 1.28324C43.4125 54.3031 34.7258 110.251 6.51828 156.82L0.609902 153.189C27.8613 108.199 36.2536 54.1467 23.9405 2.92391L30.6674 1.28324Z" fill="white"/>
<path d="M30.6674 1.28324C43.4125 54.3031 34.7258 110.251 6.51828 156.82L0.609902 153.189C27.8613 108.199 36.2536 54.1467 23.9405 2.92391L30.6674 1.28324Z" stroke="white" stroke-width="0.664461" mask="url(#path-1-outside-1_43_38)"/>
</svg>
