<svg width="43" height="156" viewBox="0 0 43 156" fill="none" xmlns="http://www.w3.org/2000/svg">
<mask id="path-1-outside-1_42_34" maskUnits="userSpaceOnUse" x="0" y="0" width="43" height="156" fill="black">
<rect fill="white" width="43" height="156"/>
<path d="M36.2586 155.226C21.1958 132.879 10.6502 107.762 5.22408 81.3089C-0.202043 54.8562 -0.402474 27.586 4.63423 1.05535L11.4323 2.3648C6.56634 27.9962 6.75998 54.3421 12.0022 79.8982C17.2444 105.454 27.4325 129.72 41.9849 151.31L36.2586 155.226Z"/>
</mask>
<path d="M36.2586 155.226C21.1958 132.879 10.6502 107.762 5.22408 81.3089C-0.202043 54.8562 -0.402474 27.586 4.63423 1.05535L11.4323 2.3648C6.56634 27.9962 6.75998 54.3421 12.0022 79.8982C17.2444 105.454 27.4325 129.72 41.9849 151.31L36.2586 155.226Z" fill="white"/>
<path d="M36.2586 155.226C21.1958 132.879 10.6502 107.762 5.22408 81.3089C-0.202043 54.8562 -0.402474 27.586 4.63423 1.05535L11.4323 2.3648C6.56634 27.9962 6.75998 54.3421 12.0022 79.8982C17.2444 105.454 27.4325 129.72 41.9849 151.31L36.2586 155.226Z" stroke="white" stroke-width="0.664461" mask="url(#path-1-outside-1_42_34)"/>
</svg>
